<svg width="116" height="79" viewBox="0 0 116 79" fill="none" xmlns="http://www.w3.org/2000/svg">
<path d="M20.4822 45.065L18.4972 37.57H20.0722L21.0072 41.975L21.3322 44.18H21.1472L21.5072 41.975L22.6422 37.57H23.9922L25.1572 41.975L25.5672 44.19H25.3572L25.6772 41.975L26.5672 37.57H28.0972L26.1522 45.065H24.6122L23.4922 40.81L23.0522 38.105H23.4822L23.0772 40.81L21.9572 45.065H20.4822ZM29.0466 45V37.57H30.6266V45H29.0466ZM32.4131 45V37.57H33.8631L36.6481 41.965L37.6181 43.9H37.2731L37.0481 41.405V37.57H38.4781V45H36.9281L34.2681 40.74L33.1531 38.54H33.5731L33.8331 41.245V45H32.4131ZM40.1475 45V37.57H44.6825V38.75H41.7075V40.615H43.9625V41.77H41.7075V43.795H44.9975V45H40.1475ZM51.8643 43.725C51.8876 43.7117 51.9176 43.6867 51.9543 43.65C51.9943 43.61 52.031 43.5717 52.0643 43.535C52.101 43.4983 52.1226 43.4767 52.1293 43.47C52.2726 43.3933 52.3926 43.2883 52.4893 43.155C52.586 43.0217 52.6576 42.8733 52.7043 42.71C52.7543 42.5433 52.7793 42.375 52.7793 42.205C52.7793 41.9783 52.7626 41.7933 52.7293 41.65C52.6993 41.5033 52.676 41.3967 52.6593 41.33H53.9093C53.926 41.4 53.946 41.5067 53.9693 41.65C53.996 41.79 54.0093 41.9767 54.0093 42.21C54.0093 42.7167 53.916 43.135 53.7293 43.465C53.5426 43.7917 53.296 44.055 52.9893 44.255C52.976 44.265 52.9526 44.2917 52.9193 44.335C52.8893 44.375 52.856 44.415 52.8193 44.455C52.786 44.4917 52.7626 44.5133 52.7493 44.52C52.516 44.66 52.2243 44.7883 51.8743 44.905C51.5243 45.0217 51.1626 45.08 50.7893 45.08C50.1093 45.08 49.5326 45.0017 49.0593 44.845C48.586 44.685 48.226 44.4533 47.9793 44.15C47.736 43.8433 47.6143 43.47 47.6143 43.03C47.6143 42.67 47.7026 42.3583 47.8793 42.095C48.0593 41.8283 48.301 41.6017 48.6043 41.415C48.9076 41.2283 49.246 41.07 49.6193 40.94C49.6293 40.9367 49.6626 40.9283 49.7193 40.915C49.7793 40.9017 49.8376 40.8883 49.8943 40.875C49.9543 40.8583 49.9893 40.8483 49.9993 40.845C50.2726 40.7417 50.511 40.6183 50.7143 40.475C50.921 40.3317 51.0793 40.1583 51.1893 39.955C51.3026 39.7517 51.3593 39.5117 51.3593 39.235C51.3593 39.125 51.3343 39.01 51.2843 38.89C51.2343 38.7667 51.151 38.6617 51.0343 38.575C50.921 38.4883 50.7693 38.445 50.5793 38.445C50.3426 38.445 50.146 38.5167 49.9893 38.66C49.836 38.8033 49.7593 39.005 49.7593 39.265C49.7593 39.425 49.7776 39.5667 49.8143 39.69C49.8543 39.81 49.9143 39.9317 49.9943 40.055C50.0743 40.1783 50.176 40.32 50.2993 40.48C50.4226 40.6367 50.5693 40.8317 50.7393 41.065L50.8993 41.27C50.986 41.39 51.1026 41.5483 51.2493 41.745C51.3993 41.9417 51.5626 42.15 51.7393 42.37C51.9193 42.5867 52.096 42.795 52.2693 42.995C52.4426 43.1917 52.596 43.3533 52.7293 43.48C52.9093 43.6367 53.076 43.765 53.2293 43.865C53.386 43.9617 53.5493 44.035 53.7193 44.085C53.8926 44.135 54.096 44.165 54.3293 44.175V45C54.2526 45.02 54.156 45.0383 54.0393 45.055C53.926 45.0717 53.7943 45.08 53.6443 45.08C53.2176 45.08 52.8543 45.0033 52.5543 44.85C52.2543 44.6933 51.9743 44.5017 51.7143 44.275C51.5476 44.1083 51.3643 43.9133 51.1643 43.69C50.9676 43.4667 50.7676 43.235 50.5643 42.995C50.3643 42.7517 50.176 42.5167 49.9993 42.29C49.8226 42.0633 49.671 41.8633 49.5443 41.69L49.3993 41.525C49.246 41.3183 49.0926 41.1017 48.9393 40.875C48.786 40.6483 48.6593 40.4067 48.5593 40.15C48.4593 39.89 48.4093 39.6083 48.4093 39.305C48.4093 38.7217 48.6043 38.2667 48.9943 37.94C49.3876 37.6133 49.9126 37.45 50.5693 37.45C50.9893 37.45 51.3526 37.53 51.6593 37.69C51.966 37.85 52.2026 38.065 52.3693 38.335C52.536 38.6017 52.6193 38.8983 52.6193 39.225C52.6193 39.5617 52.5676 39.855 52.4643 40.105C52.3643 40.3517 52.2243 40.565 52.0443 40.745C51.8676 40.925 51.661 41.0833 51.4243 41.22C51.1876 41.3567 50.9343 41.485 50.6643 41.605C50.6476 41.6083 50.601 41.6217 50.5243 41.645C50.4476 41.665 50.3693 41.6867 50.2893 41.71C50.2126 41.7333 50.166 41.7467 50.1493 41.75C49.9226 41.8467 49.7243 41.955 49.5543 42.075C49.3876 42.195 49.2576 42.3283 49.1643 42.475C49.0743 42.6217 49.0293 42.785 49.0293 42.965C49.0293 43.1617 49.081 43.34 49.1843 43.5C49.291 43.66 49.461 43.7883 49.6943 43.885C49.9276 43.9783 50.2393 44.025 50.6293 44.025C50.916 44.025 51.151 43.9967 51.3343 43.94C51.5176 43.8833 51.6943 43.8117 51.8643 43.725ZM56.7935 41.305C56.7935 40.6817 56.8885 40.1333 57.0785 39.66C57.2685 39.1833 57.5318 38.785 57.8685 38.465C58.2052 38.1417 58.5935 37.8983 59.0335 37.735C59.4768 37.5717 59.9502 37.49 60.4535 37.49C60.8102 37.49 61.1085 37.51 61.3485 37.55C61.5918 37.5867 61.7952 37.6283 61.9585 37.675C62.1252 37.7183 62.2735 37.7533 62.4035 37.78L62.1935 39.14C62.1302 39.1 62.0335 39.0483 61.9035 38.985C61.7768 38.9183 61.6035 38.86 61.3835 38.81C61.1668 38.7567 60.8952 38.73 60.5685 38.73C60.1452 38.73 59.7702 38.8283 59.4435 39.025C59.1168 39.2217 58.8602 39.505 58.6735 39.875C58.4868 40.245 58.3935 40.6917 58.3935 41.215C58.3935 41.7383 58.4785 42.1983 58.6485 42.595C58.8218 42.9917 59.0752 43.3033 59.4085 43.53C59.7418 43.7533 60.1485 43.865 60.6285 43.865C60.8518 43.865 61.0785 43.84 61.3085 43.79C61.5385 43.74 61.7435 43.68 61.9235 43.61C62.1035 43.5367 62.2368 43.465 62.3235 43.395V44.69C62.1902 44.7433 62.0368 44.8 61.8635 44.86C61.6902 44.92 61.4902 44.9717 61.2635 45.015C61.0402 45.0583 60.7802 45.08 60.4835 45.08C59.7102 45.08 59.0485 44.925 58.4985 44.615C57.9485 44.3017 57.5268 43.8617 57.2335 43.295C56.9402 42.7283 56.7935 42.065 56.7935 41.305ZM63.6143 45V37.57H65.1843V40.675H68.0993V37.57H69.6593V45H68.0993V41.825H65.1843V45H63.6143ZM71.3291 45V37.57H75.8641V38.75H72.8891V40.615H75.1441V41.77H72.8891V43.795H76.1791V45H71.3291ZM77.3838 45V37.57H81.9188V38.75H78.9438V40.615H81.1988V41.77H78.9438V43.795H82.2338V45H77.3838ZM85.4435 45.08C85.1002 45.08 84.7752 45.055 84.4685 45.005C84.1618 44.955 83.8968 44.895 83.6735 44.825C83.4502 44.755 83.2918 44.6917 83.1985 44.635L83.4335 43.395C83.5568 43.4683 83.7185 43.5417 83.9185 43.615C84.1218 43.685 84.3452 43.745 84.5885 43.795C84.8318 43.8417 85.0768 43.865 85.3235 43.865C85.7202 43.865 86.0152 43.8033 86.2085 43.68C86.4018 43.5567 86.4985 43.3583 86.4985 43.085C86.4985 42.8917 86.4452 42.73 86.3385 42.6C86.2318 42.4667 86.0635 42.3367 85.8335 42.21C85.6068 42.0833 85.3118 41.9333 84.9485 41.76C84.6385 41.61 84.3468 41.4317 84.0735 41.225C83.8002 41.0183 83.5785 40.7717 83.4085 40.485C83.2385 40.1983 83.1535 39.8633 83.1535 39.48C83.1535 39.1333 83.2202 38.835 83.3535 38.585C83.4902 38.3317 83.6768 38.125 83.9135 37.965C84.1502 37.8017 84.4235 37.6817 84.7335 37.605C85.0468 37.5283 85.3818 37.49 85.7385 37.49C86.2518 37.49 86.6735 37.5383 87.0035 37.635C87.3335 37.7317 87.5635 37.8217 87.6935 37.905L87.4285 39.095C87.2718 38.9817 87.0552 38.88 86.7785 38.79C86.5018 38.6967 86.1852 38.65 85.8285 38.65C85.5918 38.65 85.3852 38.6783 85.2085 38.735C85.0352 38.7917 84.9002 38.875 84.8035 38.985C84.7068 39.0917 84.6585 39.2233 84.6585 39.38C84.6585 39.5667 84.7035 39.7267 84.7935 39.86C84.8868 39.99 85.0335 40.1167 85.2335 40.24C85.4335 40.36 85.6935 40.4983 86.0135 40.655C86.3035 40.7917 86.5718 40.935 86.8185 41.085C87.0652 41.2317 87.2818 41.3933 87.4685 41.57C87.6552 41.7467 87.8002 41.9483 87.9035 42.175C88.0068 42.4017 88.0585 42.6617 88.0585 42.955C88.0585 43.4017 87.9535 43.785 87.7435 44.105C87.5335 44.4217 87.2318 44.6633 86.8385 44.83C86.4485 44.9967 85.9835 45.08 85.4435 45.08ZM89.2881 45V37.57H93.8231V38.75H90.8481V40.615H93.1031V41.77H90.8481V43.795H94.1381V45H89.2881Z" fill="#780000"/>
</svg>
