<svg width="404" height="262" viewBox="0 0 404 262" fill="none" xmlns="http://www.w3.org/2000/svg">
<path d="M80.1431 139.902L79.7702 112.7L84.6978 114.018L84.2833 133.824L84.518 133.887L94.3554 116.602L98.8385 117.801L98.7418 137.705L98.9641 137.764L108.496 120.384L113.424 121.702L99.5201 145.085L95 143.876L94.6836 124.775L94.486 124.722L84.6632 141.111L80.1431 139.902Z" fill="#780000"/>
<path d="M121.247 145.721L125.183 126.483L129.717 127.411L125.78 146.649L121.247 145.721ZM128.021 124.219C127.303 124.073 126.733 123.708 126.313 123.126C125.895 122.536 125.754 121.903 125.893 121.226C126.033 120.542 126.41 120.014 127.026 119.644C127.642 119.266 128.31 119.15 129.028 119.297C129.754 119.446 130.323 119.814 130.733 120.403C131.153 120.985 131.293 121.618 131.153 122.303C131.015 122.979 130.637 123.506 130.02 123.885C129.414 124.256 128.747 124.368 128.021 124.219Z" fill="#780000"/>
<path d="M145.848 133.473L144.053 144.838L139.482 144.116L142.544 124.72L146.914 125.41L146.393 128.706L146.621 128.742C147.238 127.726 148.086 126.976 149.163 126.49C150.249 126.006 151.516 125.878 152.964 126.107C154.303 126.318 155.424 126.788 156.327 127.518C157.238 128.248 157.882 129.2 158.257 130.372C158.641 131.546 158.707 132.906 158.454 134.454L156.504 146.804L151.933 146.082L153.771 134.44C153.976 133.143 153.799 132.075 153.241 131.237C152.692 130.399 151.828 129.888 150.649 129.701C149.85 129.575 149.11 129.64 148.432 129.895C147.763 130.143 147.199 130.568 146.742 131.168C146.293 131.77 145.995 132.539 145.848 133.473Z" fill="#780000"/>
<path d="M176.185 146.42C174.225 146.228 172.573 145.654 171.229 144.699C169.893 143.737 168.918 142.468 168.302 140.891C167.688 139.306 167.481 137.492 167.682 135.448C167.88 133.438 168.435 131.711 169.348 130.268C170.27 128.817 171.465 127.736 172.931 127.024C174.397 126.303 176.064 126.035 177.93 126.219C179.134 126.337 180.252 126.644 181.282 127.14C182.321 127.627 183.213 128.315 183.956 129.201C184.708 130.089 185.26 131.18 185.612 132.473C185.965 133.758 186.058 135.258 185.889 136.971L185.75 138.383L169.732 136.806L170.038 133.702L181.641 134.844C181.719 133.961 181.606 133.158 181.3 132.434C180.995 131.702 180.528 131.103 179.897 130.639C179.274 130.175 178.522 129.9 177.64 129.813C176.699 129.72 175.849 129.868 175.092 130.255C174.335 130.635 173.721 131.174 173.25 131.872C172.788 132.564 172.509 133.345 172.415 134.218L172.148 136.928C172.036 138.065 172.148 139.06 172.483 139.916C172.82 140.762 173.34 141.439 174.043 141.945C174.748 142.442 175.601 142.74 176.602 142.839C177.272 142.905 177.887 142.871 178.448 142.738C179.011 142.597 179.509 142.359 179.945 142.025C180.38 141.691 180.727 141.258 180.984 140.727L185.237 141.634C184.854 142.744 184.239 143.685 183.392 144.458C182.554 145.224 181.523 145.781 180.298 146.132C179.074 146.474 177.703 146.57 176.185 146.42Z" fill="#780000"/>
<path d="M214.014 147.42C212.224 147.416 210.686 147.088 209.401 146.438C208.115 145.787 207.125 144.911 206.428 143.81C205.74 142.701 205.398 141.452 205.401 140.062C205.403 139.014 205.618 138.086 206.046 137.277C206.483 136.468 207.081 135.72 207.841 135.031C208.609 134.342 209.497 133.658 210.505 132.979L215.152 129.831C215.835 129.389 216.352 128.922 216.702 128.428C217.061 127.935 217.241 127.356 217.243 126.691C217.244 126.128 217.007 125.595 216.53 125.091C216.063 124.587 215.416 124.335 214.589 124.333C214.035 124.331 213.545 124.462 213.118 124.726C212.7 124.981 212.371 125.316 212.131 125.734C211.9 126.151 211.784 126.594 211.783 127.062C211.782 127.633 211.938 128.213 212.252 128.802C212.575 129.391 212.991 130.001 213.501 130.633C214.02 131.265 214.572 131.935 215.159 132.644L227.412 147.066L222.401 147.055L212.225 135.347C211.469 134.459 210.738 133.584 210.032 132.722C209.335 131.859 208.762 130.963 208.312 130.033C207.871 129.095 207.652 128.08 207.654 126.989C207.657 125.753 207.945 124.65 208.518 123.68C209.091 122.701 209.89 121.932 210.914 121.371C211.946 120.811 213.153 120.533 214.533 120.536C215.914 120.539 217.098 120.814 218.086 121.362C219.073 121.909 219.834 122.635 220.369 123.54C220.904 124.445 221.17 125.43 221.168 126.495C221.165 127.731 220.856 128.838 220.24 129.817C219.624 130.787 218.77 131.667 217.678 132.457L212.376 136.319C211.506 136.948 210.882 137.586 210.506 138.233C210.129 138.871 209.941 139.416 209.94 139.868C209.938 140.558 210.111 141.185 210.46 141.748C210.808 142.312 211.297 142.764 211.927 143.107C212.565 143.44 213.311 143.608 214.163 143.61C215.1 143.612 216.026 143.406 216.938 142.99C217.851 142.566 218.684 141.963 219.435 141.18C220.187 140.398 220.786 139.461 221.231 138.372C221.677 137.273 221.901 136.055 221.904 134.717L225.88 134.726C225.876 136.379 225.69 137.819 225.321 139.045C224.952 140.263 224.476 141.293 223.895 142.136C223.313 142.97 222.698 143.638 222.05 144.139C221.845 144.283 221.648 144.428 221.461 144.572C221.273 144.717 221.076 144.861 220.871 145.006C219.949 145.839 218.87 146.45 217.633 146.839C216.405 147.229 215.199 147.422 214.014 147.42Z" fill="#780000"/>
<path d="M246.849 146.862L244.369 120.798L261.067 119.21L261.443 123.168L249.467 124.307L250.141 131.383L260.971 130.353L261.347 134.311L250.517 135.341L251.57 146.413L246.849 146.862Z" fill="#780000"/>
<path d="M283.286 145.87C281.391 146.165 279.684 146.003 278.165 145.386C276.645 144.768 275.386 143.77 274.386 142.39C273.395 141.009 272.743 139.316 272.432 137.312C272.12 135.308 272.225 133.493 272.749 131.867C273.28 130.241 274.176 128.902 275.436 127.853C276.696 126.803 278.273 126.13 280.168 125.835C282.063 125.54 283.77 125.702 285.289 126.319C286.808 126.937 288.064 127.94 289.057 129.329C290.058 130.718 290.714 132.414 291.026 134.418C291.338 136.422 291.227 138.234 290.694 139.852C290.17 141.469 289.277 142.802 288.018 143.852C286.758 144.902 285.181 145.575 283.286 145.87ZM282.741 142.202C283.768 142.042 284.583 141.627 285.186 140.955C285.788 140.275 286.182 139.429 286.369 138.416C286.565 137.402 286.571 136.306 286.388 135.127C286.203 133.94 285.863 132.893 285.369 131.986C284.881 131.07 284.248 130.38 283.468 129.915C282.688 129.449 281.785 129.297 280.757 129.457C279.705 129.621 278.873 130.043 278.263 130.725C277.662 131.405 277.264 132.256 277.069 133.278C276.882 134.291 276.881 135.39 277.066 136.578C277.249 137.757 277.584 138.8 278.07 139.708C278.565 140.614 279.202 141.3 279.982 141.765C280.768 142.22 281.688 142.366 282.741 142.202Z" fill="#780000"/>
<path d="M313.742 145.323C311.868 145.73 310.155 145.671 308.601 145.145C307.048 144.619 305.731 143.697 304.651 142.379C303.58 141.06 302.829 139.409 302.398 137.427C301.967 135.444 301.965 133.626 302.39 131.973C302.824 130.317 303.639 128.928 304.834 127.805C306.029 126.682 307.564 125.917 309.437 125.51C311.311 125.103 313.025 125.162 314.578 125.688C316.132 126.214 317.445 127.141 318.518 128.469C319.6 129.795 320.356 131.449 320.787 133.431C321.218 135.413 321.215 137.228 320.779 138.875C320.352 140.52 319.541 141.905 318.346 143.028C317.151 144.151 315.616 144.916 313.742 145.323ZM312.98 141.695C313.996 141.474 314.785 141.01 315.347 140.304C315.907 139.589 316.25 138.721 316.377 137.699C316.512 136.676 316.453 135.581 316.2 134.415C315.944 133.24 315.543 132.216 314.995 131.34C314.454 130.455 313.78 129.803 312.974 129.385C312.168 128.967 311.257 128.869 310.241 129.09C309.2 129.316 308.396 129.787 307.827 130.504C307.268 131.218 306.921 132.092 306.788 133.124C306.661 134.146 306.725 135.244 306.98 136.418C307.233 137.584 307.63 138.605 308.169 139.482C308.717 140.358 309.394 141.004 310.2 141.422C311.012 141.83 311.939 141.921 312.98 141.695Z" fill="#780000"/>
<path d="M345.263 145.115C343.778 145.533 342.342 145.526 340.954 145.094C339.566 144.662 338.327 143.815 337.237 142.555C336.147 141.295 335.31 139.627 334.725 137.552C334.134 135.451 333.979 133.582 334.261 131.945C334.549 130.296 335.18 128.936 336.154 127.865C337.125 126.786 338.336 126.042 339.788 125.633C340.895 125.321 341.859 125.253 342.679 125.429C343.497 125.597 344.189 125.885 344.755 126.292C345.319 126.691 345.781 127.088 346.14 127.482L346.324 127.43L343.669 118.005L348.136 116.746L355.235 141.947L350.855 143.181L350.016 140.204L349.745 140.28C349.645 140.804 349.45 141.386 349.161 142.025C348.869 142.656 348.418 143.253 347.806 143.815C347.194 144.377 346.346 144.81 345.263 145.115ZM345.477 141.11C346.42 140.845 347.152 140.364 347.673 139.668C348.192 138.964 348.495 138.104 348.58 137.088C348.666 136.072 348.537 134.953 348.192 133.731C347.848 132.509 347.376 131.495 346.778 130.69C346.187 129.882 345.489 129.322 344.684 129.008C343.886 128.693 343.008 128.67 342.048 128.941C341.055 129.22 340.3 129.712 339.781 130.416C339.262 131.12 338.963 131.975 338.883 132.98C338.803 133.985 338.928 135.075 339.259 136.248C339.592 137.429 340.057 138.436 340.654 139.268C341.258 140.09 341.967 140.674 342.781 141.02C343.602 141.355 344.5 141.385 345.477 141.11Z" fill="#780000"/>
</svg>
