<svg width="29" height="32" viewBox="0 0 29 32" fill="none" xmlns="http://www.w3.org/2000/svg">
<path d="M13.3327 0.0623435C10.6925 0.500803 8.62274 2.17203 7.96451 4.40246C7.88406 4.6757 7.78167 5.42553 7.71585 6.21984C7.65734 6.96332 7.58421 7.68773 7.56227 7.83388L7.5257 8.10713H5.8582C4.05905 8.10713 3.52516 8.16432 2.98395 8.39943C2.27453 8.7108 1.68213 9.44157 1.57974 10.1279C1.49198 10.7125 0 29.204 0 29.706C0 30.6338 0.468071 31.3074 1.40421 31.7522L1.86497 31.9682L14.3859 31.9873L26.9067 32L27.3309 31.8666C28.1281 31.606 28.8741 30.799 28.9984 30.0682C29.0569 29.7505 27.4553 10.3376 27.3456 9.9817C27.1408 9.31448 26.5118 8.67903 25.7585 8.37401C25.3416 8.20244 25.3343 8.20244 23.3889 8.18338L21.4362 8.16432L21.3996 7.83388C21.3703 7.6496 21.3045 6.91884 21.246 6.20713C21.1144 4.71383 20.9754 4.13557 20.522 3.30949C19.6517 1.72722 17.9841 0.551639 16.0095 0.132243C15.3513 -0.00755589 13.9763 -0.0456828 13.3327 0.0623435ZM15.9802 1.71451C17.5892 2.15932 18.8691 3.3222 19.2713 4.70747C19.3737 5.04426 19.6005 7.23656 19.6005 7.86565V8.10713H14.4444H9.28096L9.32484 7.80211C9.34678 7.63689 9.41261 6.93154 9.47843 6.23255C9.60276 4.82821 9.76366 4.24995 10.2464 3.55731C10.751 2.82655 11.8188 2.06401 12.7257 1.78441C13.7788 1.45398 14.949 1.42856 15.9802 1.71451ZM7.39405 9.66397C7.41599 9.67668 7.38674 10.1787 7.32823 10.776C7.24047 11.7673 7.24778 11.8753 7.35748 12.085C7.56227 12.4599 8.10347 12.5997 8.55692 12.3964C8.91528 12.2375 8.98842 12.0151 9.07618 10.9222C9.12006 10.3693 9.16394 9.85461 9.18589 9.772L9.21514 9.6322H14.4809H19.7467L19.776 9.772C19.7979 9.85461 19.8418 10.3693 19.8857 10.9222C19.9734 12.0151 20.0466 12.2375 20.405 12.3964C20.8584 12.5997 21.3996 12.4599 21.6044 12.085C21.7141 11.8753 21.7214 11.7673 21.6336 10.776C21.5751 10.1787 21.5459 9.67668 21.5678 9.66397C21.6263 9.60678 24.5371 9.6322 24.8151 9.68939C25.1295 9.75294 25.4075 9.94993 25.5684 10.2168C25.7073 10.4456 27.3163 29.7569 27.2139 29.9856C27.1773 30.0682 27.0384 30.2144 26.9141 30.3034L26.68 30.4749H14.4663H2.25259L2.00393 30.2589C1.77721 30.0619 1.75526 30.011 1.75526 29.6615C1.75526 29.2294 3.26918 10.5981 3.32769 10.2931C3.37888 10.0135 3.62023 9.772 3.89815 9.7021C4.13219 9.64491 7.33554 9.60678 7.39405 9.66397Z" fill="#FFFFFC"/>
</svg>
